<?xml version="1.0" encoding="UTF-8"?>
<svg id="Layer_2" data-name="Layer 2" xmlns="http://www.w3.org/2000/svg" viewBox="0 0 39.96 86.5">
  <defs>
    <style>
      .cls-1 {
        fill: #fff;
        stroke-width: 0px;
      }
    </style>
  </defs>
  <g id="Layer_1-2" data-name="Layer 1">
    <path class="cls-1" d="m22.54,31.03l.11.12c13.31-3.46,15.71-9.32,15.71-9.32l-1.73-8.25c-5.46-.67-16.91-2.66-16.91-2.66,10.65-.53,14.11-4.39,14.11-4.39-.13-.4-2.13-6.52-2.13-6.52-7.32,5.99-22.1,5.32-22.1,5.32,1.2,2.13.67,7.19.67,7.19,3.46,1.86,16.11,5.19,16.11,5.19-1.42.13-15.26-1.11-16.19-1.19-1.17-1.41-1.86-2.24-1.86-2.24-2.03,4.46-5.65,6.1-5.65,6.1-6.59,5.19,1,10.58,1,10.58,26.96,9.98,23.56,53.78,23.56,53.78,0,0,2,3.99,8.79,0,0,0,2.79-23.3,3.87-35.07l.05-.41c-3.46-2.58-10.73-10.55-17.42-18.23Zm-8.78-10.26c.54.1,10.08,1.77,17.42.31-4.88,3.19-11.43,5.04-12.6,5.36-1.75-2.04-3.39-3.97-4.82-5.67Z"/>
  </g>
</svg>