<?xml version="1.0" encoding="UTF-8"?>
<svg id="Layer_2" data-name="Layer 2" xmlns="http://www.w3.org/2000/svg" viewBox="0 0 22.88 24">
  <defs>
    <style>
      .cls-1 {
        fill: #a6a5a5;
        stroke-width: 0px;
      }
    </style>
  </defs>
  <g id="Layer_1-2" data-name="Layer 1">
    <g>
      <path class="cls-1" d="m11.98.84c-.1-.06-.2-.12-.3-.17-.09-.05-.09-.11-.03-.18.06-.06.13-.12.21-.16.3-.18.62-.29.96-.32.11-.01.25,0,.34.06.82.48,1.7.84,2.56,1.25.77.36,1.51.78,2.18,1.32.47.38.96.72,1.4,1.14,1.38,1.3,2.37,2.85,2.97,4.65.32.95.5,1.92.57,2.91.05.76.02,1.51-.07,2.26-.13,1.06-.37,2.1-.76,3.09-.55,1.42-1.41,2.63-2.52,3.67-1.63,1.52-3.55,2.51-5.68,3.1-1.56.43-3.16.61-4.78.51-1.54-.1-3.03-.44-4.41-1.16-1.23-.63-2.25-1.5-3.01-2.66-.58-.9-.96-1.88-1.21-2.91C.07,15.8-.04,14.35.01,12.87c.07-2.04.44-4.02,1.14-5.94.41-1.13.94-2.21,1.67-3.17.57-.76,1.24-1.42,2.1-1.87.49-.26,1.02-.38,1.56-.48,1.15-.21,2.31-.33,3.48-.42.65-.05,1.31-.08,1.96-.12.01,0,.03,0,.04,0,0,0,0-.01,0-.02ZM1.49,12.6c0,1.75.12,3,.45,4.22.21.8.5,1.57.96,2.27.54.82,1.28,1.42,2.13,1.89,1.52.84,3.17,1.22,4.89,1.34.86.06,1.72.04,2.58-.07.86-.11,1.71-.28,2.52-.61,1.59-.66,2.85-1.74,3.86-3.11,1.18-1.6,1.91-3.39,2.21-5.36.21-1.41.17-2.81-.2-4.19-.47-1.75-1.38-3.21-2.79-4.34-.64-.51-1.39-.87-2.12-1.24-.03-.02-.08,0-.12,0-.2.07-.4.15-.6.21-.22.07-.43.05-.65-.06-.59-.31-1.19-.62-1.79-.91-.56-.27-1.15-.44-1.77-.47-.66-.03-1.33.04-1.98.15-1.01.17-1.98.48-2.94.85-.8.31-1.48.77-2.04,1.41-.76.86-1.27,1.85-1.66,2.92-.65,1.8-.93,3.67-.94,5.1Z"/>
      <path class="cls-1" d="m11.47,17.96c-1.47,0-2.91-.3-4.25-1.04-.83-.46-1.54-1.07-2.02-1.91-.36-.63-.54-1.32-.53-2.05,0-.15.07-.23.21-.26.14-.03.22,0,.29.15.06.13.1.28.15.41.21.58.6,1.04,1.06,1.43.85.72,1.84,1.16,2.91,1.43.82.21,1.65.3,2.49.25,1.83-.1,3.4-.77,4.64-2.15.14-.16.27-.34.41-.5.05-.06.09-.12.14-.17.07-.07.14-.1.24-.06.1.04.11.13.1.22-.05.42-.15.83-.32,1.23-.47,1.11-1.31,1.86-2.39,2.36-.98.45-2.02.63-3.14.65Z"/>
      <path class="cls-1" d="m8.38,9.89c-.02.4-.12.73-.47.92-.63.34-1.4,0-1.56-.7-.04-.19-.05-.4-.02-.59.08-.53.42-.8.97-.8.53,0,.96.37,1.05.92.02.09.02.18.03.25Z"/>
      <path class="cls-1" d="m13.92,9.92c0-.63.36-.97.97-1.05.51-.07,1,.31,1.1.82.16.75-.49,1.47-1.24,1.37-.29-.04-.5-.22-.64-.46-.13-.22-.19-.45-.19-.67Z"/>
    </g>
  </g>
</svg>