<?xml version="1.0" encoding="UTF-8"?>
<svg id="Layer_2" data-name="Layer 2" xmlns="http://www.w3.org/2000/svg" viewBox="0 0 24 36.38">
  <defs>
    <style>
      .cls-1 {
        fill: #fff;
        stroke-width: 0px;
      }
    </style>
  </defs>
  <g id="Layer_1-2" data-name="Layer 1">
    <g id="Layer_1-2" data-name="Layer 1-2">
      <path class="cls-1" d="m6.97,9.69c-.45-1.19-1.11-2.29-1.96-3.25-.22-.21-.23-.56-.02-.78.21-.22.56-.23.78-.02.02.02.05.05.07.08.89,1.01,1.6,2.16,2.1,3.41.18.1.35.23.51.35.59-.54.88-1.33.78-2.12-.17-1.62-1.8-3.31-3.86-3.96-1.84-.69-3.91-.2-5.24,1.25-.2.23-.19.57.03.78.14.13.34.18.52.13.61-.13,1.25,0,1.75.37.53.37.92.92,1.07,1.55.28,1.14,1.05,2.08,2.11,2.58.32.14.67.22,1.02.22.28,0,.56-.06.82-.16-.07-.04-.14-.08-.21-.12-.14-.07-.24-.18-.29-.33h0Z"/>
      <path class="cls-1" d="m23.82,2.22c-1.91-2.07-4.67-2.76-7.58-1.78-2.91.98-5.36,3.43-5.61,5.72,0,.13,0,.26,0,.4.02,1.08.52,2.09,1.38,2.76.18-.13.36-.24.55-.35.62-2.14,1.97-4,3.81-5.25.26-.16.6-.07.76.19.16.26.07.6-.19.76-1.66,1.16-2.87,2.86-3.41,4.82-.04.17-.15.31-.3.38l-.23.13c.4.18.83.27,1.27.27.48,0,.96-.12,1.41-.31,1.51-.72,2.62-2.07,3.01-3.69.25-1.02.86-1.91,1.72-2.5.82-.6,1.86-.82,2.86-.6.29.08.6-.09.68-.38.06-.19,0-.39-.13-.53,0,0-.02-.01-.02-.01Z"/>
      <path class="cls-1" d="m11.99,9.33c-.76.55-1.43,1.23-1.98,2-.39-.71-.93-1.33-1.56-1.84-.2.2-.43.37-.68.51-.09.06-.2.11-.3.14,1.29.89,2.12,2.3,2.26,3.86h-3.71c-.3,0-.55.25-.55.55v2.73c0,.3.25.55.55.55h.89v3.81L1,29.9c-1.32,1.84-.9,4.4.94,5.72.69.5,1.52.76,2.36.77h11.79c2.27-.02,4.09-1.86,4.07-4.13,0-.85-.28-1.67-.77-2.36l-5.91-8.27v-3.8h.89c.3,0,.55-.25.55-.55v-2.73c0-.3-.25-.55-.55-.55h-3.58c-.05-.5-.15-.99-.29-1.46.61-1.04,1.45-1.92,2.47-2.56-.1-.04-.19-.09-.29-.15-.25-.15-.48-.31-.71-.5Zm.55,12.83l3.31,4.6c-1.82.18-3.65.06-5.43-.33-1.84-.31-3.59-.61-5.35-.27l2.87-4.01c.07-.09.1-.2.1-.32v-3.99h4.41v4c0,.12.03.23.09.33Z"/>
    </g>
  </g>
</svg>