<svg id="Glyph" height="512" viewBox="0 0 64 64" width="512" xmlns="http://www.w3.org/2000/svg"><path d="m47.307 46.792v7.24a2.5 2.5 0 0 1 -2.5 2.5h-21.27a2.507 2.507 0 0 1 -2.5-2.5v-7.24z"/><path d="m51.667 15.722a9.009 9.009 0 0 0 -4.6-5.55c-7.04-3.44-15.91-3.61-22.09-.44-3.52 1.81-5.665 4.481-6.22 7.72-.957 5.595 1.04 13.82 1.97 17.43l.23.9a.49.49 0 0 1 -.36.61.482.482 0 0 1 -.61-.36l-.23-.91a71.515 71.515 0 0 1 -2.41-12.45 7.74 7.74 0 0 0 -6.18 5.49c-1.44 5.26 2.33 11.85 10.08 17.62a.508.508 0 0 0 .29.1h25.27a.493.493 0 0 0 .39-.19c5.69-7.292 7.53-19.61 4.47-29.97zm-4.678 8.255h-.017a.5.5 0 0 1 -.483-.516c.139-4.225-1.377-6.894-4.772-8.4a.5.5 0 1 1 .405-.914c3.763 1.667 5.518 4.724 5.366 9.345a.5.5 0 0 1 -.499.485z"/></svg>