<?xml version="1.0" encoding="UTF-8"?>
<svg id="Layer_2" data-name="Layer 2" xmlns="http://www.w3.org/2000/svg" viewBox="0 0 469.77 402.99">
  <defs>
    <style>
      .cls-1 {
        fill: #fff;
        stroke-width: 0px;
      }
    </style>
  </defs>
  <g id="Layer_1-2" data-name="Layer 1">
    <path class="cls-1" d="m466.03,226.16c-2.05-90.38-56.48-171.32-139.42-207.3v188.64c9.12,1.53,18.22,3.13,27.24,4.72,37.26,6.57,75.72,13.35,112.18,13.94h0Z"/>
    <path class="cls-1" d="m316.61,205.86V14.81c-52.7-19.75-110.76-19.75-163.45,0v190.92c26.7-4.32,53.97-7.64,81.73-7.64s54.28,3.4,81.73,7.78Z"/>
    <path class="cls-1" d="m143.16,207.39V18.86C60.22,54.84,5.79,135.78,3.74,226.16c38.17-.56,75.75-7.36,112.15-13.94,9.02-1.62,18.11-3.27,27.26-4.82h0Zm-60.92-114.67c-19.51,21.4-34.26,46.68-43.29,74.19-.86,2.62-3.69,4.05-6.31,3.19s-4.05-3.69-3.19-6.31c9.47-28.85,24.93-55.36,45.39-77.79,1.9-2.01,5.06-2.09,7.07-.2,1.95,1.84,2.09,4.9.33,6.92h0Zm27.91-25.61c-3.68,2.8-7.31,5.76-10.79,8.81-2.08,1.82-5.24,1.6-7.06-.48-1.82-2.08-1.6-5.24.47-7.06h0c3.65-3.19,7.46-6.3,11.31-9.24,2.2-1.67,5.33-1.25,7.01.95,1.67,2.2,1.25,5.33-.95,7.01Z"/>
    <path class="cls-1" d="m401.77,298.72c-19.36-11.74-44.71-18.76-67.82-18.76-21.88,0-39.88,6.25-52.05,18.07-7.29,7.13-12.47,16.14-14.96,26.03-.01.07-.04.14-.05.21-2.82,11.3-2.82,23.12,0,34.43.02.07.04.13.05.2,2.49,9.89,7.67,18.9,14.96,26.03,12.17,11.82,30.17,18.07,52.05,18.07,23.11,0,48.47-7.01,67.82-18.76,19.78-12,31.12-27.58,31.12-42.76s-11.34-30.76-31.12-42.76h0Z"/>
    <path class="cls-1" d="m456.52,328.1h-15.76c2.85,8.69,2.85,18.06,0,26.74h15.76c7.38-.06,13.32-6.1,13.26-13.49-.06-7.3-5.96-13.19-13.26-13.26Z"/>
    <path class="cls-1" d="m29.02,328.1h-15.76c-7.38.06-13.32,6.1-13.26,13.49.06,7.3,5.96,13.19,13.26,13.26h15.76c-2.85-8.69-2.85-18.06,0-26.74Z"/>
    <path class="cls-1" d="m213.87,328.1c1.5,8.85,1.5,17.89,0,26.74h42.03c-1.5-8.85-1.5-17.89,0-26.74h-42.03Z"/>
    <path class="cls-1" d="m202.83,324.06c-2.49-9.89-7.67-18.9-14.96-26.03-12.17-11.82-30.17-18.07-52.05-18.07-23.11,0-48.47,7.01-67.82,18.76-19.78,12-31.11,27.58-31.11,42.76s11.34,30.76,31.12,42.76c19.36,11.74,44.71,18.76,67.82,18.76,21.88,0,39.88-6.25,52.05-18.07,7.29-7.13,12.47-16.14,14.96-26.02.01-.07.04-.13.05-.2,2.82-11.31,2.82-23.14,0-34.44-.02-.07-.04-.12-.05-.19h0Z"/>
  </g>
</svg>