<?xml version="1.0" encoding="UTF-8"?>
<svg id="Layer_2" data-name="Layer 2" xmlns="http://www.w3.org/2000/svg" viewBox="0 0 429.97 417.52">
  <defs>
    <style>
      .cls-1 {
        fill: #fff;
        stroke-width: 0px;
      }
    </style>
  </defs>
  <g id="Layer_1-2" data-name="Layer 1">
    <g id="Swimming">
      <path class="cls-1" d="m144.97,11.9C57.74,42.95-.38,125.7,0,218.29c.04,7.52.46,15.04,1.26,22.52,43.53-27.7,92.56-45.62,143.7-52.49V11.9Z"/>
      <path class="cls-1" d="m428.7,240.81c.8-7.48,1.22-15,1.27-22.52.38-91.95-56.94-174.27-143.31-205.82v176.09c50.55,7,99,24.82,142.05,52.25h0Z"/>
      <path class="cls-1" d="m214.98,183c18.61.01,37.2,1.13,55.67,3.36V7.43c-35.89-9.75-73.71-9.91-109.68-.48v179.21c17.93-2.1,35.96-3.15,54.02-3.17Z"/>
      <path class="cls-1" d="m214.98,199c-80.12,0-156,20.87-208.18,57.27-1.03.72-2.01,1.52-3.02,2.25,1.29,7.01,2.79,13.95,4.72,20.71.68,2.31,3.11,3.64,5.42,2.96.46-.13.89-.34,1.28-.62,49.53-33.81,120.7-55.02,199.79-55.02s150.25,21.2,199.78,55.01c1.98,1.38,4.71.9,6.09-1.08.27-.39.48-.82.61-1.27,1.95-6.81,3.44-13.74,4.72-20.71-1.01-.73-1.99-1.51-3.02-2.22-52.18-36.4-128.06-57.28-208.19-57.28h0Z"/>
      <path class="cls-1" d="m213.46,318.01c6.86.03,13.71-.54,20.48-1.68-3.05,7.2-5.3,14.71-6.72,22.4-.7,3.56-1.15,7.17-1.36,10.8-4.1-.65-8.25-.97-12.4-.96-3.16-.02-6.31.17-9.44.56-.18-3.49-.61-6.97-1.28-10.4-1.4-7.51-3.57-14.86-6.48-21.92,5.7.82,11.45,1.22,17.2,1.2h0Z"/>
      <path class="cls-1" d="m175.62,311.93c-7.07-11.47-18.72-19.37-32-21.68-38.16-6.56-134.88,16.24-135.12,63.52-.24,48.88,89.2,75.6,145.92,58.64,32.03-9.58,45.93-63.58,21.2-100.48Zm-21.04,77.6c-20.72,14.8-58,10.56-77.6,3.68-23.68-8.08-38.96-23.84-38.88-40,.08-13.28,11.2-24.72,34.08-34.88,17.04-7.6,58.96-15.36,83.04.32,5.64,3.63,10.15,8.75,13.04,14.8.15.15.23.35.24.56,8.44,19.53,2.73,42.28-13.92,55.52h0Z"/>
      <path class="cls-1" d="m286.34,290.25c-12.62,2.2-23.81,9.45-30.96,20.08-25.55,36.08-13.05,92.12,20.16,102.08,56.72,16.96,146.16-9.76,145.92-58.64-.24-47.28-96.96-70.08-135.12-63.52h0Zm66.64,102.96c-18.64,6.53-56.26,11.54-77.6-3.68-16.97-13.79-22.46-37.32-13.36-57.2l.08-.08c2.98-5.54,7.33-10.23,12.64-13.6,24.08-15.68,66-7.92,83.04-.32,22.88,10.16,34,21.6,34.08,34.88.08,16.16-15.2,31.92-38.88,40h0Z"/>
      <path class="cls-1" d="m146.5,332.01c-16.56-10.72-50.64-6.72-67.84.88-15.6,6.96-24.56,14.4-24.56,20.4,0,7.28,8.72,18.16,28.08,24.8,9.07,3.07,44.89,11.34,63.12-1.6,12.56-8.96,16.32-34.64,1.2-44.48h0Z"/>
      <path class="cls-1" d="m351.3,332.89c-17.2-7.6-51.28-11.6-67.84-.88-15.18,9.81-11.47,35.39,1.2,44.48,18.24,13.04,54.4,4.56,63.12,1.6,11.35-3.94,28.08-13.42,28.08-24.8,0-6-8.96-13.44-24.56-20.4h0Z"/>
    </g>
  </g>
</svg>