<?xml version="1.0" encoding="UTF-8"?>
<svg id="Layer_2" data-name="Layer 2" xmlns="http://www.w3.org/2000/svg" viewBox="0 0 338.15 392.51">
  <defs>
    <style>
      .cls-1 {
        fill: #fff;
        stroke-width: 0px;
      }
    </style>
  </defs>
  <g id="Glyph">
    <path class="cls-1" d="m291.53,314.59v57.92c0,11.05-8.95,20-20,20H101.37c-11.03-.03-19.97-8.97-20-20v-57.92h210.16Z"/>
    <path class="cls-1" d="m326.41,66.03c-5.55-19.28-18.89-35.37-36.8-44.4-56.32-27.52-127.28-28.88-176.72-3.52-28.16,14.48-45.32,35.85-49.76,61.76-7.66,44.76,8.32,110.56,15.76,139.44l1.84,7.2c.59,2.08-.63,4.25-2.71,4.84-.06.02-.11.03-.17.04-2.04.61-4.19-.54-4.8-2.58-.03-.1-.06-.2-.08-.3l-1.84-7.28c-9.36-32.56-15.82-65.89-19.28-99.6-23.57,3.88-42.81,20.97-49.44,43.92-11.52,42.08,18.64,94.8,80.64,140.96.67.5,1.48.78,2.32.8h202.16c1.22,0,2.37-.56,3.12-1.52,45.52-58.34,60.24-156.88,35.76-239.76h0Zm-37.42,66.04h-.14c-2.21-.07-3.94-1.92-3.86-4.13,1.11-33.8-11.02-55.15-38.18-67.2-2.04-.85-3.01-3.19-2.16-5.23.85-2.04,3.19-3.01,5.23-2.16.06.02.12.05.18.08,30.1,13.34,44.14,37.79,42.93,74.76-.06,2.16-1.83,3.88-3.99,3.88Z"/>
  </g>
</svg>