<?xml version="1.0" encoding="UTF-8"?>
<svg id="Layer_2" data-name="Layer 2" xmlns="http://www.w3.org/2000/svg" viewBox="0 0 20.68 24">
  <defs>
    <style>
      .cls-1 {
        fill: #a6a5a5;
        stroke-width: 0px;
      }
    </style>
  </defs>
  <g id="Layer_1-2" data-name="Layer 1">
    <g>
      <path class="cls-1" d="m17.83,19.24v3.54c0,.68-.55,1.22-1.22,1.22H6.2c-.67,0-1.22-.55-1.22-1.22v-3.54h12.85Z"/>
      <path class="cls-1" d="m19.96,4.04c-.34-1.18-1.15-2.16-2.25-2.71-3.44-1.68-7.78-1.77-10.81-.22-1.72.89-2.77,2.19-3.04,3.78-.47,2.74.51,6.76.96,8.53l.11.44c.04.13-.04.26-.17.3,0,0,0,0-.01,0-.12.04-.26-.03-.29-.16,0,0,0-.01,0-.02l-.11-.45c-.57-1.99-.97-4.03-1.18-6.09-1.44.24-2.62,1.28-3.02,2.69-.7,2.57,1.14,5.8,4.93,8.62.04.03.09.05.14.05h12.36c.07,0,.14-.03.19-.09,2.78-3.57,3.68-9.59,2.19-14.66h0Zm-2.29,4.04h0c-.13,0-.24-.12-.24-.25.07-2.07-.67-3.37-2.33-4.11-.12-.05-.18-.19-.13-.32.05-.12.19-.18.32-.13,0,0,0,0,.01,0,1.84.82,2.7,2.31,2.62,4.57,0,.13-.11.24-.24.24Z"/>
    </g>
  </g>
</svg>