<?xml version="1.0" encoding="UTF-8"?>
<svg id="Layer_2" data-name="Layer 2" xmlns="http://www.w3.org/2000/svg" viewBox="0 0 16.8 24">
  <defs>
    <style>
      .cls-1 {
        fill: #a6a5a5;
        stroke-width: 0px;
      }
    </style>
  </defs>
  <g id="Layer_1-2" data-name="Layer 1">
    <g id="Layer_1-2" data-name="Layer 1-2">
      <path class="cls-1" d="m15.53,12.57c.22-.61.41-1.22.56-1.84.58-2.31,1.31-5.19-.15-7.5C14.46.83,11.58.33,10.49.15,7.26-.41,3.13.59,2.44,2.76c-.08.23-.1.48-.09.75.15-.03.29-.06.43-.06h0c.83,0,1.44.66,1.61.86.56.71.53,1.48.5,2.29-.02.48-.03.99.06,1.54.08.48.19.98.46,1.52,1.22.15,2.48.2,3.75.18,1.27-.02,2.93-.13,3.67-.56,1.49-.87,2.1-2.59,2.34-3.87.03-.13.15-.2.27-.19.13.03.21.15.19.27-.11.59-.3,1.26-.59,1.91l.59,1.69c.04.12-.02.25-.15.3-.03,0-.05.01-.08.01-.1,0-.19-.06-.22-.16l-.45-1.27c-.39.66-.92,1.27-1.67,1.71-.65.38-1.97.59-3.89.62h-.5c-1.01,0-1.99-.06-2.97-.16.23.34.52.7.93,1.11.08.08.09.24,0,.33-.08.08-.24.09-.33,0-1.39-1.36-1.67-2.41-1.81-3.37-.1-.6-.08-1.15-.06-1.64.03-.78.05-1.4-.4-1.97-.13-.16-.62-.69-1.25-.69h0c-.42,0-.88.24-1.32.7C.54,5.57-.06,7.22,0,8.63c.07,1.32.59,2.29,1.15,3.25.4.66.87,1.27,1.42,1.82.38.39.8.75,1.24,1.06h10.74c.37-.73.7-1.47.97-2.2h0Z"/>
      <rect class="cls-1" x="3.98" y="15.24" width="10.5" height=".73"/>
      <path class="cls-1" d="m11.03,20.49c0-.95-.78-1.72-1.73-1.72H3.57c-.2,0-.36.15-.36.36v2.74c0,.2.16.36.36.36h5.74c.95,0,1.73-.78,1.73-1.73h0Z"/>
      <path class="cls-1" d="m14.48,16.44H3.98v1.86h5.32c1.22,0,2.2.99,2.2,2.19s-.99,2.19-2.2,2.19H3.98v1.32h10.5v-7.56h0Z"/>
    </g>
  </g>
</svg>