<?xml version="1.0" encoding="UTF-8"?>
<svg id="Layer_2" data-name="Layer 2" xmlns="http://www.w3.org/2000/svg" viewBox="0 0 426.67 426.67">
  <defs>
    <style>
      .cls-1 {
        fill: #fff;
        stroke-width: 0px;
      }
    </style>
  </defs>
  <g id="Layer_3" data-name="Layer 3">
    <path class="cls-1" d="m215.29,0h-3.91C94.75,0,0,94.75,0,211.38v45.16l23.83-8.71c125.69-45.69,253.34-45.69,379.03,0l23.82,8.71v-45.16C426.67,94.75,331.91,0,215.29,0Z"/>
    <path class="cls-1" d="m320,284.44c-41.42,0-76.09,22.58-86.04,53.33h-41.24c-9.96-30.75-44.62-53.33-86.04-53.33-49.07,0-88.89,31.82-88.89,71.11,0,39.3,39.82,71.12,88.88,71.12,41.42,0,76.09-22.58,86.04-53.33h41.24c9.96,30.75,44.63,53.33,86.05,53.33,49.07,0,88.89-31.82,88.89-71.11s-39.83-71.12-88.89-71.12Z"/>
  </g>
</svg>