<?xml version="1.0" encoding="UTF-8"?>
<svg id="Layer_2" data-name="Layer 2" xmlns="http://www.w3.org/2000/svg" viewBox="0 0 23.99 24">
  <defs>
    <style>
      .cls-1 {
        fill: #a6a5a5;
        stroke-width: 0px;
      }
    </style>
  </defs>
  <g id="Layer_1-2" data-name="Layer 1">
    <g>
      <path class="cls-1" d="m20.49,16c1.41,0,2.67.65,3.5,1.67V3.5C23.99,1.57,22.42,0,20.49,0s-3.5,1.57-3.5,3.5v14.18c.82-1.02,2.09-1.68,3.5-1.68Z"/>
      <path class="cls-1" d="m15.99,20.51V3.5c0-.17,0-.33.03-.5h-7.48c-1.74-.15-2.71-.98-3.05-2.6-.05-.23-.25-.4-.49-.4s-.44.16-.49.39L0,20.89v.02s0,.06,0,.1c0,.03,0,.06,0,.09,0,0,0,.01,0,.02.15.51.41,1.01.78,1.47.72.9,1.85,1.39,3.19,1.39.07,0,.15,0,.23,0h13.45c-1.02-.82-1.67-2.07-1.68-3.48Z"/>
      <path class="cls-1" d="m20.49,17c-1.93,0-3.5,1.57-3.5,3.5s1.57,3.5,3.5,3.5,3.5-1.57,3.5-3.5-1.57-3.5-3.5-3.5Zm0,5c-.83,0-1.5-.67-1.5-1.5s.67-1.5,1.5-1.5,1.5.67,1.5,1.5-.67,1.5-1.5,1.5Z"/>
    </g>
  </g>
</svg>