<?xml version="1.0" encoding="UTF-8"?>
<svg id="Layer_2" data-name="Layer 2" xmlns="http://www.w3.org/2000/svg" viewBox="0 0 23.78 24">
  <defs>
    <style>
      .cls-1 {
        fill: #a6a5a5;
        stroke-width: 0px;
      }
    </style>
  </defs>
  <g id="Layer_1-2" data-name="Layer 1">
    <g id="_33_om" data-name="33 om">
      <g>
        <path class="cls-1" d="m23.68,13.56c-.13-1.84-.84-3.46-2.24-4.73-2.12-1.92-5.11-1.6-7.01,1.48-1.04,1.68-2.13,4.9-4.72,2.57,1.51-1.09,2.46-2.34,2.33-4.52-.1-1.74-1.37-3.29-2.95-3.52-2.14-.31-4.12.12-5.95,1.28-.54.34-.72,1.05-.42,1.61.24.45.49.91.75,1.36.21.38.7.5,1.06.27,1.3-.84,2.34-1.47,4.18-1.26,2.02.23,2.5,3.06-.95,3.32-.48.04-.95.03-1.46.02-.43,0-.74.4-.63.81.21.74.41,1.48.62,2.21.08.29.35.48.65.47,1.99-.11,3.48,0,3.93,2.03.77,3.41-5.19,5.2-7.99,1.87C.78,16.31.58,14.02.32,13.15c-.02-.05-.07-.09-.12-.09-.06,0-.12.05-.13.11-.15,1.18-.04,2.45.06,3.06,1.16,7.23,7.61,9.23,11.09,6.76,1.85-1.31,2.21-3.29,1.93-5.39-.11-.86-.46-1.69-.73-2.66,1.65,0,2.41.22,3.46-.78.48-.46.85-1.04,1.28-1.56,2.31-2.84,4.55-4.37,5.01.05.21,2.06-.27,3.84-2.11,5.07-1.43.96-3.01.85-4.09-.14-.2-.18-.52-.02-.48.25.45,3.1,6.26,6.84,8.08-.42.31-1.24.2-2.58.11-3.86h0Z"/>
        <path class="cls-1" d="m20.38,4.46c.1-.11.11-.27.02-.38-.4-.53-.8-1.05-1.21-1.58-.11-.14-.31-.16-.44-.04-2.76,2.51-5.34,2.07-7.09-.38-.04-.05-.1-.08-.16-.08-.12,0-.22.11-.2.23.84,5.05,6.63,4.85,9.07,2.24h0Z"/>
        <path class="cls-1" d="m14.78,2.69c.07.07.19.07.26,0,.4-.42.78-.82,1.18-1.23.07-.08.07-.2,0-.27-.4-.37-.82-.74-1.25-1.13-.08-.07-.19-.06-.26.01-.38.41-.75.8-1.14,1.22-.07.07-.07.19,0,.26.39.37.79.75,1.21,1.15Z"/>
      </g>
    </g>
  </g>
</svg>