<?xml version="1.0" encoding="UTF-8"?>
<svg id="Layer_2" data-name="Layer 2" xmlns="http://www.w3.org/2000/svg" viewBox="0 0 24 23.97">
  <defs>
    <style>
      .cls-1 {
        fill: #fff;
        stroke-width: 0px;
      }
    </style>
  </defs>
  <g id="Layer_1-2" data-name="Layer 1">
    <path class="cls-1" d="m22.48,15.32h-.81c-.26,0-.5-.12-.65-.33l-4.51-6.19c-.36-.47-.92-.75-1.51-.75h-.99c-.22,0-.39-.17-.39-.39v-.91c0-.18.09-.35.24-.45.94-.62,1.56-1.69,1.55-2.91C15.4,1.51,13.86,0,11.98,0c-1.88,0-3.41,1.54-3.41,3.43,0,1.2.61,2.25,1.55,2.86.15.1.24.27.24.45v.92c0,.22-.17.39-.39.39h-1.26c-.6,0-1.15.28-1.51.75l-4.5,6.25c-.15.21-.39.33-.65.33h-.55c-.83,0-1.51.67-1.51,1.5s.67,1.51,1.51,1.51h1.48c-.91.51-1.53,1.49-1.53,2.61,0,1.65,1.34,2.98,2.98,2.98h12.64l-9.93-5.5c-.79-.3-1.63-.46-2.48-.46h-.06c.12-.09.22-.2.31-.32l2.86-4.26v3.75s.03.01.04.02l4.2,2.33,3.92-2.35v-3.75l2.87,4.21c.09.13.21.24.33.34-1.08.01-2.23.31-3.2.85h0s-2.5,1.49-2.5,1.49l6.42,3.56c1.37-.27,2.41-1.48,2.41-2.93h0c0-1.14-.62-2.11-1.54-2.61h1.75c.83,0,1.51-.67,1.51-1.51,0-.83-.68-1.5-1.52-1.5h0Z"/>
  </g>
</svg>