<svg xmlns="http://www.w3.org/2000/svg" xmlns:xlink="http://www.w3.org/1999/xlink" version="1.1" x="0px" y="0px" viewBox="0 0 100 125" style="enable-background:new 0 0 100 100;" xml:space="preserve"><path d="M73.25,51.86c0.71-1.99,1.32-4,1.83-6.01c1.89-7.53,4.26-16.9-0.47-24.45c-4.85-7.81-14.26-9.43-17.79-10.04  c-10.55-1.81-24,1.44-26.25,8.5c-0.24,0.75-0.32,1.56-0.3,2.43c0.47-0.12,0.93-0.2,1.4-0.2c0.02,0,0.02,0,0.02,0  c2.7,0.02,4.71,2.15,5.25,2.8c1.83,2.31,1.74,4.81,1.64,7.45c-0.06,1.58-0.12,3.23,0.18,5.03c0.24,1.58,0.61,3.19,1.5,4.95  c3.96,0.47,8.07,0.67,12.23,0.59c4.12-0.06,9.56-0.43,11.95-1.83c4.87-2.86,6.84-8.44,7.61-12.62c0.08-0.43,0.49-0.67,0.89-0.61  c0.41,0.08,0.69,0.47,0.61,0.89c-0.37,1.91-0.97,4.1-1.95,6.23l1.91,5.52c0.14,0.39-0.06,0.83-0.47,0.97  c-0.08,0.02-0.16,0.04-0.24,0.04c-0.32,0-0.61-0.2-0.71-0.53l-1.46-4.16c-1.28,2.17-3.02,4.16-5.44,5.58  c-2.13,1.26-6.41,1.95-12.68,2.03c-0.55,0.02-1.1,0.02-1.62,0.02c-3.29,0-6.51-0.2-9.68-0.53c0.75,1.12,1.7,2.29,3.04,3.61  c0.28,0.28,0.3,0.77,0,1.08c-0.28,0.28-0.77,0.3-1.08,0c-4.54-4.46-5.42-7.87-5.92-11c-0.32-1.97-0.26-3.75-0.2-5.34  c0.1-2.56,0.16-4.56-1.3-6.41c-0.43-0.53-2.03-2.23-4.08-2.25h-0.02c-1.38,0-2.88,0.79-4.3,2.29c-3,3.14-4.93,8.52-4.71,13.11  c0.22,4.28,1.91,7.47,3.77,10.61c1.3,2.15,2.86,4.14,4.63,5.94c1.26,1.28,2.62,2.43,4.04,3.47H70.1  C71.32,56.65,72.37,54.23,73.25,51.86z"/><rect x="35.59" y="60.56" width="34.22" height="2.37"/><path d="M58.58,77.66c0-3.1-2.54-5.62-5.64-5.62h-18.7c-0.63,0-1.16,0.51-1.16,1.16v8.91c0,0.65,0.53,1.18,1.16,1.18h18.7  C56.04,83.28,58.58,80.75,58.58,77.66z"/><path d="M69.82,64.46H35.59v6.07h17.35c3.96,0,7.16,3.21,7.16,7.14s-3.21,7.14-7.16,7.14H35.59v4.32h34.22V64.46z"/><text x="0" y="115" fill="#000000" font-size="5px" font-weight="bold" font-family="'Helvetica Neue', Helvetica, Arial-Unicode, Arial, Sans-serif">Created by ainul muttaqin</text><text x="0" y="120" fill="#000000" font-size="5px" font-weight="bold" font-family="'Helvetica Neue', Helvetica, Arial-Unicode, Arial, Sans-serif">from the Noun Project</text></svg>