<svg xmlns="http://www.w3.org/2000/svg" xmlns:xlink="http://www.w3.org/1999/xlink" version="1.1" x="0px" y="0px" viewBox="0 0 100 125" enable-background="new 0 0 100 100" xml:space="preserve"><path fill="#000000" d="M46.572,36.747l0.113,0.122c13.311-3.461,15.707-9.318,15.707-9.318l-1.73-8.253  c-5.458-0.666-16.905-2.662-16.905-2.662c10.649-0.532,14.109-4.393,14.109-4.393c-0.133-0.4-2.129-6.523-2.129-6.523  c-7.321,5.99-22.098,5.325-22.098,5.325c1.198,2.129,0.666,7.188,0.666,7.188c3.46,1.864,16.107,5.191,16.107,5.191  c-1.415,0.129-15.264-1.11-16.188-1.193c-1.173-1.408-1.858-2.241-1.858-2.241c-2.031,4.46-5.648,6.097-5.648,6.097  c-6.589,5.191,0.998,10.583,0.998,10.583c26.956,9.984,23.562,53.778,23.562,53.778s1.997,3.994,8.786,0c0,0,2.79-23.3,3.873-35.067  l0.054-0.407C60.526,52.392,53.265,44.426,46.572,36.747z M37.792,26.491c0.536,0.097,10.078,1.772,17.421,0.312  c-4.875,3.187-11.428,5.042-12.603,5.358C40.86,30.119,39.222,28.188,37.792,26.491z"/><text x="0" y="115" fill="#000000" font-size="5px" font-weight="bold" font-family="'Helvetica Neue', Helvetica, Arial-Unicode, Arial, Sans-serif">Created by Adrien Duchateau</text><text x="0" y="120" fill="#000000" font-size="5px" font-weight="bold" font-family="'Helvetica Neue', Helvetica, Arial-Unicode, Arial, Sans-serif">from the Noun Project</text></svg>