<?xml version="1.0" encoding="UTF-8"?>
<svg id="Layer_2" data-name="Layer 2" xmlns="http://www.w3.org/2000/svg" viewBox="0 0 24 23.73">
  <defs>
    <style>
      .cls-1 {
        fill: #fff;
        stroke-width: 0px;
      }
    </style>
  </defs>
  <g id="a">
    <path class="cls-1" d="m4.49,22.83h.01c.69.41,1.5.63,2.37.82h0c.94.14,2.03.12,3.03-.2,1.72-.55,2.77-1.86,3.13-3.88.72-4.11-3.06-6.31-3.83-6.71-.19-.09-.2-.38-.02-.49,2.55-1.61,3.33-3.52,2.33-5.67-.54-1.17-1.36-1.91-2.43-2.22-2.62-.75-5.98,1.25-6.79,1.77l1.52,2.64c.84-.58,4.22-2.71,6.16-.94.37.34.58.8.6,1.3.01.49-.18.95-.52,1.29-1.1,1.09-2.95.96-4.41.63l.99,3.52c.58-.16,2.23-.49,3.36.37.77.58,1.13,1.58,1.09,2.97-.02.78-.3,1.43-.84,1.92-1.23,1.12-3.34,1.01-3.43,1-2.53-.17-4.47-1.38-5.75-3.6-.52-.89-.85-1.82-1.07-2.64.08,1.08.28,2.43.78,3.74.76,2.03,2.01,3.5,3.71,4.39h0Z"/>
    <path class="cls-1" d="m17.6,7.51c-1.36.46-2.56,1.85-3.64,4.26-.65,1.45-1.51,1.93-2.12,2.07-.17.04-.33.06-.47.06.2.18.4.39.59.61.97.29,1.84.23,2.65-.17.84-.42,1.68-1.23,2.55-2.47.41-.58.72-1.2,1.18-1.75.56-.67,1.28-.91,2.12-.71.67.16,1.23.69,1.68,1.57.7,1.38.87,2.93.48,4.27-.43,1.47-1.6,2.68-2.97,3.07-2,.58-3.73-.63-4.63-2.13,0,.79,0,1.71.27,2.66.35,1.24,1.27,2.22,2.44,2.63,1.14.39,2.38.2,3.38-.53,1.21-.88,2.17-2.46,2.62-4.32.2-.83.28-1.54.24-2.18-.05-.83-.2-2.07-.68-3.3-.57-1.47-1.45-2.54-2.62-3.18-1.11-.61-2.15-.76-3.09-.44h0Z"/>
    <path class="cls-1" d="m13.61,5.91c1.91.91,4.57.32,7.9-1.75.09-.05.11-.17.04-.25l-1.46-1.82c-.06-.07-.16-.09-.24-.03-2.1,1.61-4.04,2.23-5.77,1.86-1.68-.36-2.77-1.59-3.36-2.46.1.53.28,1.21.59,1.89.54,1.23,1.32,2.09,2.3,2.56h0Z"/>
    <path class="cls-1" d="m16.35,1.2l-1.38-1.2-1.35,1.33,1.39,1.24,1.34-1.38Z"/>
  </g>
</svg>