<?xml version="1.0" encoding="UTF-8"?>
<svg id="Layer_2" data-name="Layer 2" xmlns="http://www.w3.org/2000/svg" viewBox="0 0 16.47 24">
  <defs>
    <style>
      .cls-1 {
        fill: #a6a5a5;
        stroke-width: 0px;
      }
    </style>
  </defs>
  <g id="Layer_1-2" data-name="Layer 1">
    <g id="Layer_1-2" data-name="Layer 1-2">
      <g>
        <path class="cls-1" d="m6.42,18.95v-1.95c-.45,0-.9-.1-1.3-.15v2.15c-1.1.3-1.9,1.3-1.9,2.45v2.05c0,.3.25.5.5.5h4.1c.3,0,.5-.25.5-.5v-2.05c0-1.2-.8-2.2-1.9-2.5Zm.85,4h-3.05v-1.5c0-.6.35-1.15.9-1.4.05.35.3.6.65.6s.6-.25.65-.6c.5.25.9.75.9,1.4v1.5h-.05Z"/>
        <path class="cls-1" d="m15.78,3.64c-.2-.1-.3-.3-.3-.5-.05-.25-.05-.45-.05-.45,0,0,.9-1.75.6-2.45h0v-.05c-.35-.7-2.2.85-2.2.85,0,0-1.5,1.65-3.65,2.25-.7.2-1.55,0-1.6-.05-.1-.05-.2-.05-.3-.1-.2,0-1.75-.8-2.3-1.35-.15-.1-.35-.35-.5-.35-.2-.05-.6-.05-1.05.05h0C1.87,2.29,1.47,5.84.52,7.79c-.8,2-.6,4,.1,5.45,1.15,2.25,4.7,3.81,7.71,3.1,3-.7,2.7-3.4,2.45-5.6-.25-2.2.85-3.35,1.1-3.6.65-.65,1.7-.15,3.5-.9,1.85-.75.85-2.35.4-2.6h-.01Z"/>
      </g>
    </g>
  </g>
</svg>