<?xml version="1.0" encoding="iso-8859-1"?>
<!-- Generator: Adobe Illustrator 16.0.0, SVG Export Plug-In . SVG Version: 6.00 Build 0)  -->
<!DOCTYPE svg PUBLIC "-//W3C//DTD SVG 1.1//EN" "http://www.w3.org/Graphics/SVG/1.1/DTD/svg11.dtd">
<svg version="1.1" id="Capa_1" xmlns="http://www.w3.org/2000/svg" xmlns:xlink="http://www.w3.org/1999/xlink" x="0px" y="0px"
	 width="570.965px" height="570.965px" viewBox="0 0 570.965 570.965" style="enable-background:new 0 0 570.965 570.965;"
	 xml:space="preserve">
<g>
	<g>
		<path d="M29.11,242.546c-10.545,26.552-16.114,55.107-16.114,84.535c0,61.133,23.807,118.603,67.033,161.831
			c43.226,43.226,100.698,67.033,161.831,67.033c29.428,0,57.99-5.569,84.542-16.114c36.787,18.688,70.475,28.996,97.818,28.996
			c22.305,0,40.185-6.569,53.144-19.531c22.662-22.663,21.475-56.583,16.487-81.048c-4.795-23.525-15.499-50.832-31.24-79.933
			c18.528-66.394,6.179-138.881-35.927-196.223c-0.119-0.163-0.229-0.328-0.349-0.487c-1.956-2.656-4-5.269-6.081-7.858
			c-0.373-0.462-0.725-0.937-1.104-1.398c-1.934-2.365-3.953-4.685-5.997-6.989c-0.523-0.59-1.02-1.196-1.549-1.781
			c-2.558-2.824-5.189-5.603-7.913-8.326c-2.598-2.598-5.254-5.117-7.95-7.574c-1.597-1.45-3.237-2.831-4.868-4.229
			c-1.074-0.924-2.13-1.875-3.216-2.778c-2.338-1.934-4.716-3.797-7.111-5.625c-0.361-0.275-0.713-0.566-1.074-0.838
			c-39.459-29.82-87.286-45.989-137.611-45.989c-1.836,0-3.657,0.092-5.483,0.135c-0.233,0.006-0.465,0.009-0.698,0.016
			c-3.179,0.083-6.355,0.229-9.532,0.443c-0.217,0.016-0.432,0.034-0.649,0.049c-15.224,1.068-30.144,3.623-44.612,7.598
			c-32.583-17.671-72.77-34.403-108.11-34.403c-22.295,0-40.171,6.566-53.127,19.522c-19.278,19.278-34.153,59.361,4.471,140.833
			C25.708,235.762,27.381,239.146,29.11,242.546z M34.792,106.722c8.987-8.987,21.968-13.253,37.981-13.25
			c21.848,0.003,49.358,7.98,80.022,22.69c0.034,0.015,0.067,0.034,0.101,0.049c-2.271,0.958-4.541,1.915-6.787,2.95
			c-0.015-0.003-0.031-0.009-0.049-0.012c-10.211-2.724-19.63-4.146-28.039-4.146c-13.354,0-24.183,3.556-31.68,11.053
			c-9.553,9.553-12.28,24.165-9.278,42.311c1.251,7.574,3.51,15.765,6.705,24.477c17.286,47.167,61.904,109.411,122.412,169.921
			c60.499,60.5,122.746,105.133,169.909,122.425c8.706,3.191,16.897,5.456,24.468,6.711c4.624,0.765,9.033,1.184,13.171,1.184
			c12.111,0,22.035-3.354,29.158-10.48c12.194-12.194,13.902-33.247,6.897-59.605c1.047-2.249,2.096-4.495,3.063-6.769
			c25.465,53.112,30.615,96.681,9.369,117.926c-8.993,8.993-21.974,13.256-37.999,13.256c-20.129,0-45.043-6.747-72.815-19.306
			c-7.81-3.531-15.842-7.515-24.061-11.946c-48.25-26.019-102.825-67.206-155.087-119.468
			c-52.277-52.277-93.44-106.853-119.456-155.112c-4.434-8.228-8.406-16.254-11.937-24.073C18.33,167.65,14.514,127,34.792,106.722z
			"/>
		<path d="M396.341,94.534l29.213,11.864l7.18,31.806c1.866,8.277,7.919,13.626,15.422,13.626c3.131,0,7.834-0.973,12.436-5.609
			l22.097-22.243l31.347,0.679l0.511,0.006c6.747,0,12.197-2.959,14.96-8.118c2.779-5.192,2.194-11.435-1.6-17.133l-18.015-27.035
			l14.11-29.36c2.75-5.729,2.684-11.634-0.188-16.2c-3.399-5.41-10.006-7.879-17.423-6.356l-30.903,6.365L450.922,6.562
			c-3.51-2.895-7.457-4.425-11.411-4.425c-8.06,0-14.406,6.276-15.435,15.26l-3.626,31.638l-26.665,16.867
			c-5.872,3.715-8.936,9.25-8.402,15.187C385.909,87.019,389.905,91.924,396.341,94.534z"/>
		<path d="M564.117,217.883l-14.226-9.37l-1.646-17.13c-0.747-7.788-6.316-13.226-13.544-13.226c-3.302,0-6.555,1.2-9.412,3.47
			l-13.477,10.707l-16.622-3.743c-6.188-1.396-11.992,0.759-15.11,5.456c-2.576,3.886-2.892,8.862-0.866,13.66l6.552,15.508
			l-9.339,14.783c-3.002,4.752-3.329,10.254-0.872,14.712c2.457,4.456,7.273,7.118,12.946,7.118l17.124-0.058l11.846,12.369
			c2.98,3.112,6.747,4.822,10.605,4.822c6.558,0,11.91-4.733,13.323-11.784l3.382-16.879l16.294-5.719
			c5.496-1.928,9.156-6.166,9.792-11.334C571.507,226.081,568.982,221.086,564.117,217.883z"/>
		<path d="M564.684,350.32l-10.701-7.048l-1.236-12.886c-0.56-5.856-4.749-9.947-10.187-9.947c-2.481,0-4.93,0.902-7.081,2.609
			l-10.138,8.055l-12.503-2.815c-4.654-1.05-9.021,0.572-11.365,4.104c-1.937,2.922-2.176,6.668-0.651,10.275l4.927,11.668
			l-7.026,11.12c-2.258,3.574-2.503,7.711-0.654,11.067c1.848,3.351,5.471,5.353,9.739,5.353l12.883-0.043l8.911,9.306
			c2.239,2.341,5.073,3.629,7.978,3.629c4.933,0,8.959-3.562,10.021-8.865l2.542-12.695l12.256-4.303
			c4.134-1.45,6.888-4.639,7.365-8.525C570.24,356.489,568.343,352.728,564.684,350.32z"/>
	</g>
</g>
<g>
</g>
<g>
</g>
<g>
</g>
<g>
</g>
<g>
</g>
<g>
</g>
<g>
</g>
<g>
</g>
<g>
</g>
<g>
</g>
<g>
</g>
<g>
</g>
<g>
</g>
<g>
</g>
<g>
</g>
</svg>
