<?xml version="1.0" encoding="UTF-8"?>
<svg id="Layer_2" data-name="Layer 2" xmlns="http://www.w3.org/2000/svg" viewBox="0 0 24 17.73">
  <defs>
    <style>
      .cls-1 {
        fill: #a6a5a5;
        stroke-width: 0px;
      }
    </style>
  </defs>
  <g id="Layer_1-2" data-name="Layer 1">
    <g id="Layer_1-2" data-name="Layer 1-2">
      <g>
        <path class="cls-1" d="m6.39,12.82c.46.18.86.33,1.6.48.15-.05.43-.18.63-.28.81-.38,1.9-.89,3.34-.89s2.63.56,3.37.91c.2.1.48.23.58.25.58-.1.99-.23,1.47-.38.13-.05.25-.08.38-.13-.46-.91-1.04-2.1-1.14-2.3-.78-.25-1.44-.76-1.92-1.44-.05-.08-.1-.15-.15-.23-.38-.66-.56-1.37-.53-2.08-.25-.3-1.82-2.53-1.82-2.53,0,0,3.62-1.9,4.18-2.18s.76-.94.43-1.52c-.3-.53-1.04-.66-1.67-.35-.63.33-5.39,2.68-5.9,3.04-.48.33-.35.89-.13,1.27l-.03-.05s.05.05.1.13c.23.33,2,3.04,2.15,3.22l-5.54,4.84c.2.08.41.15.61.23Z"/>
        <circle class="cls-1" cx="17.78" cy="6.87" r="2.89"/>
        <path class="cls-1" d="m23.94,16.06c-.1-.33-.33-.61-.63-.76-1.42-.73-2.41-1.04-3.34-1.04-.71,0-1.32.18-1.97.41-.51.15-1.01.33-1.75.46-.1.03-.2.03-.3.03-.46,0-.86-.2-1.39-.46-.66-.33-1.49-.73-2.56-.73s-1.82.38-2.56.71c-.56.25-.99.46-1.42.46-.08,0-.18,0-.25-.03-.94-.18-1.49-.41-2-.58-.58-.23-1.09-.41-1.7-.41-.84,0-1.72.3-3.37,1.16-.3.15-.53.43-.63.76-.1.33-.08.68.08.99.23.43.66.71,1.16.71.2,0,.41-.05.58-.15,1.22-.63,1.82-.86,2.18-.86.2,0,.41.08.78.23.53.2,1.27.48,2.43.71.25.05.51.08.76.08,1.01,0,1.85-.41,2.53-.71.53-.25,1.01-.48,1.44-.48.48,0,.89.2,1.42.46.66.33,1.47.73,2.53.73.25,0,.51-.03.76-.08.91-.15,1.57-.38,2.1-.56.51-.15.81-.28,1.16-.28.48,0,1.14.23,2.15.76.18.1.38.15.61.15.48,0,.94-.28,1.16-.71.1-.28.13-.61.03-.96Z"/>
      </g>
    </g>
  </g>
</svg>