<svg id="Layer_1" height="512" viewBox="0 0 512 512" width="512" xmlns="http://www.w3.org/2000/svg" data-name="Layer 1"><path d="m487.144 280.663a231.7 231.7 0 0 0 -139.417-207.3v188.642c9.124 1.527 18.218 3.127 27.24 4.718 37.255 6.569 75.719 13.353 112.177 13.94z"/><path d="m337.727 260.365v-191.049a232.9 232.9 0 0 0 -163.454 0v190.917c26.7-4.315 53.971-7.644 81.727-7.644 26.686 0 54.282 3.395 81.727 7.776z"/><path d="m164.273 261.9v-188.537a231.7 231.7 0 0 0 -139.417 207.3c38.167-.563 75.754-7.359 112.155-13.941 9.016-1.622 18.106-3.266 27.262-4.822zm-60.922-114.673a204.991 204.991 0 0 0 -43.291 74.191 5 5 0 1 1 -9.5-3.124 214.927 214.927 0 0 1 45.388-77.794 5 5 0 0 1 7.4 6.723zm27.91-25.608c-3.676 2.8-7.306 5.765-10.792 8.812a5 5 0 0 1 -6.581-7.531c3.654-3.192 7.459-6.3 11.312-9.235a5 5 0 0 1 6.061 7.954z"/><path d="m422.885 353.225c-19.356-11.745-44.71-18.756-67.822-18.756-21.877 0-39.875 6.248-52.048 18.068a55.229 55.229 0 0 0 -14.961 26.026c-.013.071-.036.138-.053.208a71.167 71.167 0 0 0 0 34.426c.016.067.038.132.051.2a55.231 55.231 0 0 0 14.961 26.028c12.173 11.821 30.171 18.069 52.048 18.069 23.112 0 48.466-7.012 67.822-18.756 19.777-12 31.119-27.585 31.119-42.757s-11.34-30.756-31.117-42.756z"/><path d="m477.629 382.61h-15.76a42.94 42.94 0 0 1 0 26.743h15.76a13.372 13.372 0 0 0 0-26.743z"/><path d="m50.131 382.61h-15.76a13.372 13.372 0 0 0 0 26.743h15.76a42.94 42.94 0 0 1 0-26.743z"/><path d="m234.985 382.61a79.958 79.958 0 0 1 0 26.743h42.03a79.958 79.958 0 0 1 0-26.743z"/><path d="m223.947 378.57a55.214 55.214 0 0 0 -14.962-26.033c-12.173-11.82-30.171-18.068-52.048-18.068-23.112 0-48.466 7.011-67.822 18.756-19.777 12-31.115 27.584-31.115 42.756s11.342 30.757 31.119 42.757c19.356 11.744 44.71 18.756 67.822 18.756 21.877 0 39.875-6.248 52.048-18.069a55.231 55.231 0 0 0 14.957-26.025c.013-.068.035-.133.051-.2a71.159 71.159 0 0 0 0-34.444c-.018-.065-.038-.124-.05-.186z"/></svg>