<svg height="512" viewBox="0 0 64 64" width="512" xmlns="http://www.w3.org/2000/svg"><g id="Swimming"><path d="m23.24805 7.393a27.26274 27.26274 0 0 0 -18.12073 25.798 27.92172 27.92172 0 0 0 .158 2.81488 44.50529 44.50529 0 0 1 17.96271-6.56183z"/><path d="m58.71442 36.00584a27.92874 27.92874 0 0 0 .15826-2.81476 27.26852 27.26852 0 0 0 -17.91418-25.72708v22.011a44.37835 44.37835 0 0 1 17.75592 6.53084z"/><path d="m32 28.78013a58.55058 58.55058 0 0 1 6.9585.41987v-22.366a26.587 26.587 0 0 0 -13.71045-.05957v22.40169a58.584 58.584 0 0 1 6.75195-.39599z"/><path d="m32 30.78013c-10.01514 0-19.5 2.60937-26.023 7.15869-.12872.08972-.25067.18939-.378.28137.16107.87671.34814 1.74408.58966 2.58917a.5458.5458 0 0 0 .83722.29255c6.19134-4.22681 15.08801-6.87726 24.97412-6.87726 9.88544 0 18.78162 2.64984 24.9729 6.8761a.54678.54678 0 0 0 .83789-.29395c.24341-.85156.42987-1.71753.59-2.58911-.12653-.09137-.24909-.18878-.37689-.27789-6.52244-4.5503-16.00779-7.15967-26.0239-7.15967z"/><path d="m31.81 45.65646a14.98953 14.98953 0 0 0 2.56-.21 13.45479 13.45479 0 0 0 -.84 2.8 9.95827 9.95827 0 0 0 -.17 1.35 9.8269 9.8269 0 0 0 -1.55-.12 9.12548 9.12548 0 0 0 -1.18.07 9.41974 9.41974 0 0 0 -.16-1.3 13.90972 13.90972 0 0 0 -.81-2.74 14.80611 14.80611 0 0 0 2.15.15z"/><path d="m27.08 44.89645a5.88515 5.88515 0 0 0 -4-2.71c-4.77-.82-16.86 2.03-16.89 7.94-.03 6.11 11.15 9.45 18.24 7.33 4.00327-1.19808 5.741-7.94809 2.65-12.56zm-2.63 9.7c-2.59 1.85-7.25 1.32-9.7.46-2.96-1.01-4.87-2.98-4.86-5 .01-1.66 1.4-3.09 4.26-4.36005 2.13-.95 7.37-1.92 10.38.04a4.5092 4.5092 0 0 1 1.62994 1.85.108.108 0 0 1 .03.07 5.88444 5.88444 0 0 1 -1.73994 6.94006z"/><path d="m40.92 42.18649a5.87853 5.87853 0 0 0 -3.87 2.50994c-3.194 4.50939-1.63066 11.51482 2.52 12.76 7.09 2.12 18.27-1.22 18.24-7.33-.03-5.90998-12.12-8.75995-16.89-7.93994zm8.33 12.87c-2.33058.81566-7.033 1.44195-9.7-.46a5.99788 5.99788 0 0 1 -1.67-7.15l.01-.00994a4.58111 4.58111 0 0 1 1.58-1.7c3.01-1.96 8.25-.99 10.38-.04 2.86 1.27 4.25 2.7 4.26 4.36005.01 2.01984-1.9 3.98987-4.86 4.99988z"/><path d="m23.44 47.40646c-2.07-1.34-6.33-.84-8.48.11-1.95.87-3.07 1.8-3.07 2.55 0 .91 1.09 2.27 3.51 3.1 1.13325.38353 5.61147 1.41707 7.89-.2 1.57-1.12 2.04-4.33002.15-5.56z"/><path d="m49.04 47.51644c-2.15-.95-6.41-1.45-8.48-.11-1.89715 1.22626-1.43425 4.42355.15 5.56 2.28 1.63 6.8.57 7.89.2 1.41919-.49259 3.51-1.678 3.51-3.1 0-.74995-1.12-1.68-3.07-2.55z"/></g></svg>