<?xml version="1.0" encoding="UTF-8"?>
<svg id="Layer_2" data-name="Layer 2" xmlns="http://www.w3.org/2000/svg" viewBox="0 0 24 25.18">
  <defs>
    <style>
      .cls-1 {
        stroke-width: 0px;
      }
    </style>
  </defs>
  <g id="Layer_1-2" data-name="Layer 1">
    <g>
      <path class="cls-1" d="m12.57.88c-.1-.06-.2-.12-.31-.18-.09-.05-.1-.12-.03-.18.07-.06.14-.12.22-.17.31-.19.65-.3,1-.34.12-.01.26,0,.36.07.86.5,1.78.88,2.68,1.31.81.38,1.58.82,2.29,1.39.49.4,1.01.76,1.47,1.19,1.44,1.37,2.49,2.99,3.12,4.88.33.99.52,2.01.6,3.05.06.79.03,1.59-.07,2.37-.14,1.11-.39,2.2-.79,3.25-.58,1.49-1.48,2.76-2.64,3.85-1.71,1.6-3.72,2.63-5.96,3.26-1.64.45-3.31.64-5.01.53-1.62-.1-3.18-.46-4.63-1.21-1.29-.66-2.36-1.57-3.16-2.79-.61-.94-1-1.97-1.27-3.06C.07,16.58-.04,15.05.01,13.51c.08-2.14.46-4.22,1.2-6.23.43-1.19.99-2.31,1.75-3.33.6-.8,1.3-1.49,2.2-1.97.52-.27,1.07-.4,1.64-.51,1.21-.22,2.43-.34,3.65-.44.69-.05,1.37-.09,2.06-.13.02,0,.03,0,.05,0,0,0,0-.02,0-.02ZM1.57,13.22c0,1.83.13,3.14.47,4.43.22.84.53,1.65,1.01,2.38.56.86,1.34,1.49,2.23,1.98,1.6.88,3.33,1.28,5.13,1.41.9.06,1.8.04,2.7-.07.91-.11,1.8-.3,2.64-.65,1.67-.69,2.99-1.82,4.05-3.26,1.24-1.68,2-3.56,2.32-5.62.22-1.48.18-2.95-.21-4.4-.49-1.83-1.44-3.37-2.93-4.56-.67-.54-1.46-.91-2.23-1.3-.03-.02-.08,0-.12,0-.21.07-.42.16-.63.22-.23.07-.45.06-.68-.06-.62-.33-1.25-.65-1.88-.96-.58-.28-1.21-.46-1.85-.49-.7-.04-1.39.04-2.08.16-1.06.18-2.08.5-3.08.89-.84.32-1.55.81-2.14,1.48-.79.9-1.33,1.95-1.74,3.06-.69,1.89-.97,3.85-.98,5.35Z"/>
      <path class="cls-1" d="m12.03,18.85c-1.54,0-3.05-.31-4.45-1.09-.87-.49-1.61-1.12-2.12-2-.38-.66-.56-1.38-.56-2.15,0-.16.07-.24.22-.28.14-.03.23,0,.3.16.06.14.1.29.16.43.22.61.62,1.09,1.11,1.5.89.75,1.93,1.21,3.06,1.5.86.22,1.73.31,2.61.26,1.92-.11,3.57-.81,4.87-2.25.15-.17.29-.35.43-.53.05-.06.09-.12.15-.18.07-.07.15-.11.25-.06.11.05.12.13.11.23-.05.44-.16.88-.33,1.29-.5,1.17-1.38,1.95-2.51,2.47-1.03.48-2.12.66-3.29.69Z"/>
      <path class="cls-1" d="m8.8,10.38c-.02.42-.12.77-.49.97-.66.36-1.47,0-1.64-.73-.04-.2-.05-.42-.02-.62.08-.55.44-.84,1.01-.84.56,0,1.01.39,1.1.97.02.1.02.19.03.26Z"/>
      <path class="cls-1" d="m14.61,10.41c0-.66.38-1.02,1.02-1.11.53-.07,1.05.32,1.16.86.17.79-.52,1.54-1.3,1.44-.31-.04-.52-.23-.68-.48-.14-.23-.2-.47-.2-.7Z"/>
    </g>
  </g>
</svg>