<?xml version="1.0" encoding="UTF-8"?>
<svg id="Layer_2" data-name="Layer 2" xmlns="http://www.w3.org/2000/svg" viewBox="0 0 21.11 24">
  <defs>
    <style>
      .cls-1 {
        fill: #010101;
        stroke-width: 0px;
      }
    </style>
  </defs>
  <g id="Layer_1-2" data-name="Layer 1">
    <path class="cls-1" d="m20.32,0H.78C.31,0-.04.4,0,.86l1.78,20c.04.47.45.96.9,1.08l7.04,1.95c.45.13,1.19.13,1.65,0l7.05-1.95c.45-.13.86-.61.9-1.08L21.1.86c.04-.47-.31-.86-.78-.86Zm-3.39,7.22s0,0,0,0c0,0,0,0,0,0l-5.51,2.26c-.08.03-.12.12-.11.2.02.08.09.14.17.14h4.29c.23,0,.45.1.6.27.15.17.23.4.2.62l-.67,6.29c-.03.31-.24.57-.53.67l-4.55,1.6c-.17.06-.36.06-.53,0l-4.53-1.57c-.29-.1-.5-.36-.54-.67l-.3-2.85c-.02-.15.03-.3.13-.41.1-.11.24-.18.39-.18h1.26c.27,0,.5.2.53.47l.19,1.75,3.14,1.09,3.15-1.1.39-3.63H5.17c-.27,0-.5-.2-.53-.47l-.17-1.54c-.03-.23.11-.46.32-.55l5.7-2.35c.06-.03.1-.1.09-.16-.01-.07-.07-.12-.14-.12h-6c-.18,0-.33-.14-.35-.32l-.17-1.65c-.01-.1.02-.2.09-.27.07-.07.16-.12.26-.12h12.56c.1,0,.2.04.26.12.07.08.1.18.09.28l-.25,2.19Z"/>
  </g>
</svg>