<?xml version="1.0" encoding="UTF-8"?>
<svg id="Layer_2" data-name="Layer 2" xmlns="http://www.w3.org/2000/svg" viewBox="0 0 11.09 24">
  <defs>
    <style>
      .cls-1 {
        fill: #a6a5a5;
        stroke-width: 0px;
      }
    </style>
  </defs>
  <g id="Layer_1-2" data-name="Layer 1">
    <path class="cls-1" d="m6.25,8.61l.03.03c3.69-.96,4.36-2.59,4.36-2.59l-.48-2.29c-1.51-.18-4.69-.74-4.69-.74,2.95-.15,3.91-1.22,3.91-1.22-.04-.11-.59-1.81-.59-1.81C6.77,1.66,2.67,1.48,2.67,1.48c.33.59.18,1.99.18,1.99.96.52,4.47,1.44,4.47,1.44-.39.04-4.23-.31-4.49-.33-.33-.39-.52-.62-.52-.62-.56,1.24-1.57,1.69-1.57,1.69-1.83,1.44.28,2.94.28,2.94,7.48,2.77,6.54,14.92,6.54,14.92,0,0,.55,1.11,2.44,0,0,0,.77-6.46,1.07-9.73v-.11c-.95-.72-2.96-2.93-4.82-5.06Zm-2.44-2.85c.15.03,2.8.49,4.83.09-1.35.88-3.17,1.4-3.5,1.49-.49-.57-.94-1.1-1.34-1.57Z"/>
  </g>
</svg>