<?xml version="1.0" encoding="UTF-8"?>
<svg id="Layer_2" data-name="Layer 2" xmlns="http://www.w3.org/2000/svg" viewBox="0 0 18.4 24">
  <defs>
    <style>
      .cls-1 {
        fill: #a6a5a5;
        stroke-width: 0px;
      }
    </style>
  </defs>
  <g id="Layer_1-2" data-name="Layer 1">
    <g>
      <path class="cls-1" d="m9.14,9.43v-.05c-.37.24-.61.61-.77,1-.27-.93-.81-1.71-1.17-2.17-.04-.05-.07-.09-.1-.13,0,0,0,.02,0,.03-.06.14-.18.24-.33.27.44.53,1.33,1.77,1.33,3.13,0,.02,0,.03,0,.05h.46c.07-.54.26-1.38.81-1.76-.12-.08-.2-.21-.2-.36h0Z"/>
      <path class="cls-1" d="m18.31,4.14c-.8-.35-2.52-1.01-4.22-1.01-2.29,0-4.54,1.18-4.5,5.88,2.72-4.25,7.26-4.8,8.73-4.87Z"/>
      <path class="cls-1" d="m9.81,9.49c.35.12,1.09.32,1.97.32,1.34,0,3.01-.48,4.15-2.48.88-1.54,1.92-2.39,2.47-2.75-1.33.04-5.95.52-8.59,4.9h0Z"/>
      <path class="cls-1" d="m5.28,21c0,1.66,1.34,3,3,3s3-1.34,3-3v-5.55h-6v5.55Z"/>
      <path class="cls-1" d="m1.2,0C.81,0,.48.02.23.04c1.36.55,5.44,2.6,6.58,7.51C9.27.82,3.93,0,1.2,0h0Z"/>
      <path class="cls-1" d="m0,.43c.39.53,1.09,1.67,1.4,3.43.66,3.76,4.11,4.07,5.04,4.09C5.43,2.93,1.24.92,0,.43Z"/>
      <path class="cls-1" d="m4.18,12.64v1.72c0,.35.28.64.64.64h6.93c.35,0,.64-.28.64-.64v-1.72c0-.35-.28-.64-.64-.64h-6.93c-.35,0-.64.28-.64.64Z"/>
    </g>
  </g>
</svg>