<?xml version="1.0" encoding="UTF-8"?>
<svg id="Layer_2" data-name="Layer 2" xmlns="http://www.w3.org/2000/svg" viewBox="0 0 24 34.31">
  <defs>
    <style>
      .cls-1 {
        fill: #fff;
        stroke-width: 0px;
      }
    </style>
  </defs>
  <g id="Layer_1-2" data-name="Layer 1">
    <path class="cls-1" d="m22.19,17.97c.31-.87.58-1.75.8-2.63.83-3.3,1.87-7.41-.21-10.72C20.66,1.19,16.54.48,14.99.22,10.37-.58,4.47.85,3.48,3.94c-.11.33-.14.68-.13,1.07.21-.05.41-.09.61-.09h0c1.18,0,2.06.94,2.3,1.23.8,1.01.76,2.11.72,3.27-.03.69-.05,1.42.08,2.2.11.69.27,1.4.66,2.17,1.74.21,3.54.29,5.36.26,1.81-.03,4.19-.19,5.24-.8,2.13-1.25,3-3.7,3.34-5.53.04-.19.21-.29.39-.27.18.04.3.21.27.39-.16.84-.43,1.8-.85,2.73l.84,2.42c.06.17-.03.36-.21.43-.04,0-.07.02-.11.02-.14,0-.27-.09-.31-.23l-.64-1.82c-.56.95-1.32,1.82-2.38,2.45-.93.55-2.81.85-5.56.89-.24,0-.48,0-.71,0-1.44,0-2.85-.09-4.24-.23.33.49.75,1,1.33,1.58.12.12.13.34,0,.47-.12.12-.34.13-.47,0-1.99-1.95-2.38-3.45-2.59-4.82-.14-.86-.11-1.64-.09-2.34.04-1.12.07-2-.57-2.81-.19-.23-.89-.98-1.79-.99h0c-.6,0-1.26.35-1.88,1C.76,7.96-.09,10.32,0,12.33c.1,1.88.84,3.27,1.65,4.65.57.94,1.25,1.81,2.03,2.6.55.56,1.15,1.07,1.77,1.52h15.35c.53-1.04,1-2.1,1.38-3.14Z"/>
    <rect class="cls-1" x="5.68" y="21.78" width="15" height="1.04"/>
    <path class="cls-1" d="m15.76,29.28c0-1.36-1.11-2.46-2.47-2.46H5.09c-.28,0-.51.22-.51.51v3.91c0,.28.23.52.51.52h8.2c1.36,0,2.47-1.11,2.47-2.47Z"/>
    <path class="cls-1" d="m20.69,23.49H5.68v2.66h7.61c1.74,0,3.14,1.41,3.14,3.13s-1.41,3.13-3.14,3.13h-7.61v1.89h15v-10.81h0Z"/>
  </g>
</svg>