<?xml version="1.0" encoding="UTF-8"?>
<svg id="Layer_2" data-name="Layer 2" xmlns="http://www.w3.org/2000/svg" viewBox="0 0 24 35">
  <defs>
    <style>
      .cls-1 {
        fill: #fff;
        stroke-width: 0px;
      }
    </style>
  </defs>
  <g id="Layer_1-2" data-name="Layer 1">
    <g>
      <path class="cls-1" d="m9.37,27.63v-2.85c-.66,0-1.31-.15-1.9-.22v3.14c-1.61.44-2.77,1.9-2.77,3.58v2.99c0,.44.36.73.73.73h5.98c.44,0,.73-.36.73-.73v-2.99c0-1.75-1.17-3.21-2.77-3.65Zm1.24,5.84h-4.45v-2.19c0-.88.51-1.68,1.31-2.04.07.51.44.88.95.88s.88-.36.95-.88c.73.36,1.31,1.09,1.31,2.04v2.19h-.07Z"/>
      <path class="cls-1" d="m23.01,5.3c-.29-.15-.44-.44-.44-.73-.07-.36-.07-.66-.07-.66,0,0,1.31-2.55.88-3.58h0v-.07c-.51-1.02-3.21,1.24-3.21,1.24,0,0-2.19,2.41-5.33,3.28-1.02.29-2.26,0-2.34-.07-.15-.07-.29-.07-.44-.15-.29,0-2.55-1.17-3.36-1.97-.22-.15-.51-.51-.73-.51-.29-.07-.88-.07-1.53.07h0C2.73,3.33,2.14,8.51.76,11.36c-1.17,2.92-.88,5.84.15,7.95,1.68,3.28,6.86,5.55,11.24,4.52,4.38-1.02,3.94-4.96,3.58-8.17-.36-3.21,1.24-4.89,1.61-5.25.95-.95,2.48-.22,5.11-1.31,2.7-1.09,1.24-3.43.58-3.79Z"/>
    </g>
  </g>
</svg>