<?xml version="1.0" encoding="UTF-8"?>
<svg id="Layer_2" data-name="Layer 2" xmlns="http://www.w3.org/2000/svg" viewBox="0 0 24 23.82">
  <defs>
    <style>
      .cls-1 {
        fill: #fff;
        stroke-width: 0px;
      }
    </style>
  </defs>
  <g id="Capa_1" data-name="Capa 1">
    <g>
      <path class="cls-1" d="m1.22,10.11c-.44,1.12-.68,2.32-.68,3.55,0,2.57,1,4.99,2.82,6.8,1.82,1.82,4.23,2.82,6.8,2.82,1.24,0,2.44-.23,3.55-.68,1.55.79,2.96,1.22,4.11,1.22.94,0,1.69-.28,2.23-.82.95-.95.9-2.38.69-3.41-.2-.99-.65-2.14-1.31-3.36.78-2.79.26-5.84-1.51-8.25,0,0,0-.01-.01-.02-.08-.11-.17-.22-.26-.33-.02-.02-.03-.04-.05-.06-.08-.1-.17-.2-.25-.29-.02-.02-.04-.05-.07-.07-.11-.12-.22-.24-.33-.35-.11-.11-.22-.22-.33-.32-.07-.06-.14-.12-.2-.18-.05-.04-.09-.08-.14-.12-.1-.08-.2-.16-.3-.24-.02-.01-.03-.02-.05-.04-1.66-1.25-3.67-1.93-5.78-1.93-.08,0-.15,0-.23,0,0,0-.02,0-.03,0-.13,0-.27,0-.4.02,0,0-.02,0-.03,0-.64.04-1.27.15-1.88.32-1.37-.74-3.06-1.45-4.54-1.45-.94,0-1.69.28-2.23.82-.81.81-1.44,2.5.19,5.92.07.14.14.28.21.43Zm.24-5.71c.38-.38.92-.56,1.6-.56.92,0,2.07.34,3.36.95,0,0,0,0,0,0-.1.04-.19.08-.29.12,0,0,0,0,0,0-.43-.11-.83-.17-1.18-.17-.56,0-1.02.15-1.33.46-.4.4-.52,1.02-.39,1.78.05.32.15.66.28,1.03.73,1.98,2.6,4.6,5.15,7.14,2.54,2.54,5.16,4.42,7.14,5.15.37.13.71.23,1.03.28.19.03.38.05.55.05.51,0,.93-.14,1.23-.44.51-.51.58-1.4.29-2.51.04-.09.09-.19.13-.28,1.07,2.23,1.29,4.06.39,4.96-.38.38-.92.56-1.6.56-.85,0-1.89-.28-3.06-.81-.33-.15-.67-.32-1.01-.5-2.03-1.09-4.32-2.82-6.52-5.02-2.2-2.2-3.93-4.49-5.02-6.52-.19-.35-.35-.68-.5-1.01-.95-2.1-1.11-3.8-.26-4.66Z"/>
      <path class="cls-1" d="m16.66,3.88l1.23.5.3,1.34c.08.35.33.57.65.57.13,0,.33-.04.52-.24l.93-.93,1.32.03h.02c.28,0,.51-.12.63-.34.12-.22.09-.48-.07-.72l-.76-1.14.59-1.23c.12-.24.11-.49,0-.68-.14-.23-.42-.33-.73-.27l-1.3.27-1.03-.85c-.15-.12-.31-.19-.48-.19-.34,0-.61.26-.65.64l-.15,1.33-1.12.71c-.25.16-.38.39-.35.64.02.25.19.46.46.57Z"/>
      <path class="cls-1" d="m23.71,9.07l-.6-.39-.07-.72c-.03-.33-.27-.56-.57-.56-.14,0-.28.05-.4.15l-.57.45-.7-.16c-.26-.06-.5.03-.64.23-.11.16-.12.37-.04.57l.28.65-.39.62c-.13.2-.14.43-.04.62.1.19.31.3.54.3h.72s.5.52.5.52c.13.13.28.2.45.2.28,0,.5-.2.56-.5l.14-.71.68-.24c.23-.08.38-.26.41-.48.03-.22-.08-.43-.28-.56Z"/>
      <path class="cls-1" d="m23.74,14.64l-.45-.3-.05-.54c-.02-.25-.2-.42-.43-.42-.1,0-.21.04-.3.11l-.43.34-.53-.12c-.2-.04-.38.02-.48.17-.08.12-.09.28-.03.43l.21.49-.3.47c-.09.15-.11.32-.03.47.08.14.23.23.41.23h.54s.37.39.37.39c.09.1.21.15.34.15.21,0,.38-.15.42-.37l.11-.53.52-.18c.17-.06.29-.19.31-.36.02-.16-.06-.32-.21-.42Z"/>
    </g>
  </g>
</svg>