<?xml version="1.0" encoding="UTF-8"?>
<svg id="Layer_2" data-name="Layer 2" xmlns="http://www.w3.org/2000/svg" viewBox="0 0 24 24.05">
  <defs>
    <style>
      .cls-1 {
        fill: #fff;
        stroke-width: 0px;
      }
    </style>
  </defs>
  <g id="Layer_1-2" data-name="Layer 1">
    <path class="cls-1" d="m21.49,3.51h-12.53v17.08c0,.05,0,.15-.05.2,0,.05,0,.1-.05.15,0,.1-.05.15-.05.25-.15.7-.5,1.3-.9,1.85-.05.05-.1.1-.15.15-.2.2-.4.4-.6.6-.05.05-.15.1-.2.15h14.48c1.4,0,2.56-1.15,2.56-2.56V6.06c.05-1.4-1.1-2.56-2.51-2.56Z"/>
    <path class="cls-1" d="m0,4.01v13.03c.9-1.2,2.35-2,4.01-2s3.11.8,4.01,2V4.01C8.02,1.8,6.21,0,4.01,0S0,1.8,0,4.01Z"/>
    <circle class="cls-1" cx="4.01" cy="20.04" r="4.01"/>
  </g>
</svg>